<mxfile host="app.diagrams.net" agent="Mozilla/5.0 (Macintosh; Intel Mac OS X 10.15; rv:132.0) Gecko/20100101 Firefox/132.0" version="24.8.3">
  <diagram name="Page-1" id="4O3hi0Sc317MqH133GCj">
    <mxGraphModel dx="1026" dy="660" grid="1" gridSize="10" guides="1" tooltips="1" connect="1" arrows="1" fold="1" page="1" pageScale="1" pageWidth="850" pageHeight="1100" math="0" shadow="0">
      <root>
        <mxCell id="0" />
        <mxCell id="1" parent="0" />
        <mxCell id="zkYXRz9noaS4QzreNKHF-1" style="edgeStyle=orthogonalEdgeStyle;rounded=0;orthogonalLoop=1;jettySize=auto;html=1;entryX=0.025;entryY=0.433;entryDx=0;entryDy=0;entryPerimeter=0;" edge="1" parent="1" source="zkYXRz9noaS4QzreNKHF-3" target="zkYXRz9noaS4QzreNKHF-9">
          <mxGeometry relative="1" as="geometry" />
        </mxCell>
        <mxCell id="zkYXRz9noaS4QzreNKHF-2" value="UDP/514" style="edgeLabel;html=1;align=center;verticalAlign=middle;resizable=0;points=[];" vertex="1" connectable="0" parent="zkYXRz9noaS4QzreNKHF-1">
          <mxGeometry x="-0.078" y="-5" relative="1" as="geometry">
            <mxPoint as="offset" />
          </mxGeometry>
        </mxCell>
        <mxCell id="zkYXRz9noaS4QzreNKHF-3" value="" style="sketch=0;aspect=fixed;pointerEvents=1;shadow=0;dashed=0;html=1;strokeColor=none;labelPosition=center;verticalLabelPosition=bottom;verticalAlign=top;align=center;fillColor=#00188D;shape=mxgraph.mscae.enterprise.router" vertex="1" parent="1">
          <mxGeometry x="77" y="207.6" width="130" height="101.4" as="geometry" />
        </mxCell>
        <mxCell id="zkYXRz9noaS4QzreNKHF-4" value="Grafana" style="ellipse;shape=cloud;whiteSpace=wrap;html=1;" vertex="1" parent="1">
          <mxGeometry x="647" y="224.29999999999998" width="120" height="80" as="geometry" />
        </mxCell>
        <mxCell id="zkYXRz9noaS4QzreNKHF-5" style="edgeStyle=orthogonalEdgeStyle;rounded=0;orthogonalLoop=1;jettySize=auto;html=1;entryX=0.084;entryY=0.495;entryDx=0;entryDy=0;entryPerimeter=0;" edge="1" parent="1" source="zkYXRz9noaS4QzreNKHF-9" target="zkYXRz9noaS4QzreNKHF-4">
          <mxGeometry relative="1" as="geometry" />
        </mxCell>
        <mxCell id="zkYXRz9noaS4QzreNKHF-6" value="HTTPS" style="edgeLabel;html=1;align=center;verticalAlign=middle;resizable=0;points=[];" vertex="1" connectable="0" parent="zkYXRz9noaS4QzreNKHF-5">
          <mxGeometry x="0.1485" relative="1" as="geometry">
            <mxPoint as="offset" />
          </mxGeometry>
        </mxCell>
        <mxCell id="zkYXRz9noaS4QzreNKHF-7" value="" style="shape=image;html=1;verticalAlign=top;verticalLabelPosition=bottom;labelBackgroundColor=#ffffff;imageAspect=0;aspect=fixed;image=https://cdn1.iconfinder.com/data/icons/fruit-136/64/Fruit_iconfree_Filled_Outline_raspberry-healthy-organic-food-fruit_icon-128.png" vertex="1" parent="1">
          <mxGeometry x="397" y="310" width="40" height="40" as="geometry" />
        </mxCell>
        <mxCell id="zkYXRz9noaS4QzreNKHF-9" value="Vector" style="whiteSpace=wrap;html=1;aspect=fixed;" vertex="1" parent="1">
          <mxGeometry x="377" y="224" width="80" height="80" as="geometry" />
        </mxCell>
      </root>
    </mxGraphModel>
  </diagram>
</mxfile>
